<?xml version="1.0" ?>
<svg xmlns="http://www.w3.org/2000/svg" width="1024" height="1024" viewBox="0 0 1024 1024">
  <defs>
    <linearGradient id="blueGrad" x1="0%" y1="0%" x2="0%" y2="100%">
      <stop offset="0%" stop-color="#5CC8FF"/>
      <stop offset="100%" stop-color="#1976D2"/>
    </linearGradient>
    <filter id="softGlow" x="-30%" y="-30%" width="160%" height="160%">
      <feGaussianBlur in="SourceGraphic" stdDeviation="20" result="blur1"/>
      <feColorMatrix in="blur1" type="matrix" values="0 0 0 0 0   0 0 0 0 0.7   0 0 0 0 1   0 0 0 0.7 0" result="blueGlow"/>
      <feMerge>
        <feMergeNode in="blueGlow"/>
        <feMergeNode in="SourceGraphic"/>
      </feMerge>
    </filter>
  </defs>
  <g transform="translate(128,128) scale(0.85)" filter="url(#softGlow)">
    <rect x="120" y="220" rx="48" ry="48" width="784" height="360" fill="url(#blueGrad)"/>
    <path d="M120,300 C220,320 260,360 280,420 C220,420 180,420 120,420 Z" fill="url(#blueGrad)"/>
    <path d="M904,300 C804,320 764,360 744,420 C804,420 844,420 904,420 Z" fill="url(#blueGrad)"/>
    <path d="M380,540 C460,620 564,620 644,540 L644,580 C564,660 460,660 380,580 Z" fill="#0F4EA9"/>
    <rect x="540" y="190" rx="20" ry="20" width="320" height="60" fill="#5CC8FF"/>
    <text x="512" y="470" text-anchor="middle" dominant-baseline="middle" font-family="Inter, Arial, Helvetica, sans-serif" font-weight="800" font-size="300" fill="#E6F4FF" opacity="0.9">S</text>
    <rect x="120" y="220" rx="48" ry="48" width="784" height="180" fill="#FFFFFF" opacity="0.18"/>
  </g>
</svg>
